# xmcd
#
# Track frame offsets:
#	150
#	14633
#	28510
#	44311
#	60429
#	73531
#	91974
#	110525
#	132057
#
# Disc length: 2213 seconds
#
# Revision: 0
# Processed by: cddbd v1.5.1PL2 Copyright (c) Steve Scherf et al.
# Submitted via: dBpowerAMP V4.0
#
DISCID=7008a309
DTITLE=Donna Lynn Kay - Electric Blue
DYEAR=2006
DGENRE=Blues
TTITLE0=Rollin' And Tumblin'
TTITLE1=Come On In My Kitchen
TTITLE2=Turn Back Time
TTITLE3=Catfish Blues
TTITLE4=Take Me Dancing
TTITLE5=Nobody's Fault But Mine
TTITLE6=Sundown
TTITLE7=Cross Road Blues
TTITLE8=Goin' Down  To The River
EXTD=
EXTT0=
EXTT1=
EXTT2=
EXTT3=
EXTT4=
EXTT5=
EXTT6=
EXTT7=
EXTT8=
PLAYORDER=
